<svg width="155" height="36" viewBox="0 0 155 36" fill="none" xmlns="http://www.w3.org/2000/svg">
<path d="M46.2562 15.372C47.1207 15.372 47.9854 15.3842 48.8496 15.3683C49.6644 15.3534 50.3073 14.685 50.3104 13.8836C50.3136 13.1107 49.6866 12.4577 48.8702 12.4493C47.1054 12.4312 45.3401 12.4472 43.5752 12.4366C43.2945 12.4349 43.2 12.5205 43.2066 12.8018C43.2236 13.5322 43.2271 14.2637 43.2053 14.9938C43.1959 15.3086 43.3112 15.3841 43.6087 15.3786C44.4909 15.3623 45.3736 15.3728 46.2562 15.372V15.372ZM46.3349 21.2436C45.4161 21.2436 44.497 21.2521 43.5784 21.2382C43.3044 21.2341 43.1995 21.3033 43.2058 21.5938C43.2241 22.4314 43.2273 23.2701 43.2048 24.1075C43.196 24.4361 43.335 24.4849 43.6186 24.4834C45.4384 24.4736 47.2583 24.489 49.0779 24.4724C50.1089 24.4631 50.7831 23.7938 50.7645 22.854C50.746 21.9227 50.0413 21.258 49.0376 21.2459C48.1369 21.2352 47.2358 21.2437 46.3349 21.2436V21.2436ZM31.4019 18.4821C31.4112 14.4052 28.0436 11.7306 24.0992 12.6822C21.7362 13.2523 20.136 15.1554 19.8913 17.9053C19.5378 21.8788 22.5064 25.0422 26.7879 24.3167C29.5457 23.8492 31.3951 21.4668 31.4019 18.4821V18.4821ZM15.8247 9.955C21.0539 4.77945 30.9465 4.86077 35.946 10.4764C35.946 9.30689 35.9691 8.21155 35.9347 7.11791C35.9209 6.67885 36.0282 6.55993 36.4866 6.56179C41.2639 6.582 46.0415 6.56535 50.8189 6.58337C52.4575 6.58952 53.9922 6.99753 55.3255 7.98761C58.3365 10.2234 58.5036 14.9003 55.6589 17.1118C55.1023 17.5445 54.4648 17.8196 53.7293 18.0515C56.5687 18.8633 58.1472 20.9893 58.1406 23.9009C58.1339 26.8733 56.3987 29.2101 53.5941 30.0102C52.8648 30.2183 52.1176 30.3405 51.3567 30.3411C46.3629 30.3453 41.3691 30.341 36.3754 30.3554C36.0082 30.3563 35.9325 30.243 35.9385 29.9065C35.9584 28.7857 35.946 27.6644 35.946 26.5516C35.8079 26.4845 35.7689 26.5917 35.7166 26.6462C32.656 29.836 28.8236 30.9859 24.4978 30.7218C21.427 30.5342 18.6701 29.4942 16.3536 27.4385C15.9791 27.1061 15.64 26.7328 15.3025 26.3624C15.1347 26.1782 15.0531 26.0946 14.9063 26.3925C13.5435 29.1562 11.1365 30.3369 8.19392 30.6683C5.78988 30.9391 3.44464 30.722 1.22651 29.6913C-0.264746 28.9984 -0.258794 28.9848 0.512958 27.5529C1.1987 26.2806 1.89363 25.013 2.56586 23.7338C2.72145 23.4377 2.82911 23.3659 3.14611 23.5706C3.8453 24.0221 4.62055 24.2964 5.45917 24.3996C7.21217 24.6153 8.45755 23.6103 8.54716 21.8623C8.57999 21.2216 8.55824 20.578 8.55832 19.9358C8.55889 15.6541 8.56501 11.3723 8.54855 7.09058C8.54692 6.67125 8.65495 6.56211 9.0785 6.56672C11.1695 6.58936 13.261 6.58604 15.352 6.56842C15.7178 6.56535 15.8479 6.6373 15.8348 7.02752C15.8035 7.96603 15.8247 8.90631 15.8247 9.955" fill="#264185"/>
<path d="M98.0447 6.58623C99.9739 6.58316 101.902 6.59027 103.831 6.56788C104.191 6.56367 104.232 6.69828 104.231 7.00015C104.221 9.46173 104.236 11.9236 104.215 14.385C104.211 14.8146 104.299 14.9599 104.764 14.9556C107.288 14.9322 109.811 14.9355 112.335 14.9535C112.743 14.9565 112.878 14.8722 112.874 14.4379C112.85 11.9944 112.869 9.55042 112.854 7.1067C112.852 6.72342 112.903 6.5636 113.362 6.56489C119.761 6.58267 126.16 6.58081 132.559 6.56772C132.959 6.56691 133.077 6.65559 133.07 7.06426C133.045 8.74069 133.043 10.4179 133.071 12.0942C133.079 12.5208 132.932 12.5819 132.55 12.5803C129.233 12.566 125.916 12.5798 122.599 12.5624C122.179 12.5601 122.036 12.6599 122.066 13.0877C122.105 13.6737 122.109 14.2669 122.064 14.8522C122.03 15.3042 122.215 15.3652 122.612 15.3634C125.82 15.3491 129.03 15.3652 132.238 15.3442C132.687 15.3412 132.805 15.4476 132.797 15.8954C132.767 17.5539 132.768 19.2133 132.797 20.8718C132.803 21.2891 132.672 21.3612 132.284 21.3594C129.057 21.3437 125.831 21.3578 122.604 21.3413C122.192 21.3392 122.038 21.4247 122.064 21.8613C122.105 22.5368 122.099 23.2176 122.066 23.8938C122.046 24.2852 122.189 24.3572 122.553 24.3557C125.87 24.3425 129.187 24.3565 132.503 24.3375C132.944 24.335 133.08 24.4312 133.072 24.887C133.042 26.5454 133.05 28.2047 133.068 29.8636C133.071 30.2179 133.007 30.3531 132.605 30.3522C126.17 30.3392 119.735 30.3383 113.3 30.3537C112.878 30.3547 112.854 30.193 112.856 29.8591C112.867 27.1478 112.852 24.4363 112.873 21.7251C112.876 21.3169 112.764 21.2308 112.367 21.2337C109.826 21.2527 107.284 21.2548 104.742 21.2324C104.306 21.2286 104.213 21.3561 104.216 21.7659C104.235 24.4594 104.218 27.153 104.235 29.8464C104.237 30.2295 104.166 30.3594 103.743 30.3544C101.634 30.3294 99.525 30.332 97.4158 30.3529C97.0255 30.3567 96.9489 30.241 96.9506 29.877C96.9612 27.3623 96.9465 24.8475 96.9408 22.3326C99.8476 19.0127 100.587 15.1637 99.7661 10.9408C99.4647 9.38647 98.7909 7.97131 98.0447 6.58623" fill="#264185"/>
<path d="M90.7076 13.851C90.7051 11.2586 88.6652 9.24708 86.0443 9.2516C83.4993 9.25605 81.3964 11.3312 81.3905 13.8433C81.3844 16.3851 83.4879 18.4659 86.0639 18.4663C88.6815 18.4667 90.71 16.4504 90.7076 13.851ZM98.0446 6.58597C98.7909 7.97105 99.4646 9.38621 99.766 10.9406C100.586 15.1635 99.8475 19.0125 96.9407 22.3324C93.8474 25.7008 90.108 28.2632 86.2725 30.7046C83.94 32.1889 81.5351 33.5503 79.1094 34.8774C77.679 35.66 76.1919 35.0934 75.7384 33.5329C75.3163 32.0812 74.9519 30.6132 74.5622 29.1523C74.5974 29.1132 74.6271 29.0672 74.6684 29.036C76.7345 27.4727 77.4529 25.3413 77.1086 22.8862C76.7656 20.4389 75.3678 18.7704 72.8541 18.0678C72.9498 18.0106 73.0029 17.9623 73.0651 17.9441C76.2699 17.0073 77.3594 13.3991 76.3953 10.7185C75.8895 9.31208 74.9185 8.2962 73.6828 7.49489C74.0901 6.42784 74.793 5.54658 75.542 4.70969C77.9466 2.02272 80.9772 0.450406 84.5698 0.0820859C88.4012 -0.310729 91.8693 0.701663 94.9032 3.09105C96.1562 4.07758 97.1395 5.29629 98.0446 6.58597Z" fill="#8AA5DC"/>
<path d="M143.261 16.7467C143.261 16.7458 143.261 16.7449 143.261 16.744C143.946 16.744 144.632 16.759 145.316 16.7404C146.333 16.7128 147.182 16.1406 147.471 15.3169C147.948 13.9518 146.926 12.621 145.326 12.5816C143.939 12.5475 142.551 12.5781 141.164 12.5672C140.899 12.5651 140.78 12.6163 140.784 12.9154C140.8 14.0743 140.799 15.2339 140.784 16.3929C140.781 16.6785 140.873 16.7589 141.153 16.7522C141.855 16.7355 142.558 16.7467 143.261 16.7467V16.7467ZM155 30.3427C154.776 30.3427 154.637 30.3427 154.497 30.3427C152.063 30.3427 149.631 30.3332 147.197 30.3529C146.83 30.3559 146.663 30.243 146.524 29.9154C145.558 27.6544 144.563 25.4054 143.599 23.1434C143.465 22.829 143.309 22.7158 142.969 22.7339C142.412 22.7636 141.85 22.7673 141.294 22.7333C140.899 22.7092 140.775 22.8094 140.779 23.2246C140.803 25.4183 140.776 27.6124 140.803 29.806C140.807 30.2591 140.684 30.3591 140.24 30.3538C138.149 30.3289 136.058 30.3353 133.967 30.3502C133.626 30.3526 133.515 30.2786 133.515 29.9173C133.527 22.2832 133.527 14.649 133.517 7.01489C133.517 6.67672 133.59 6.56677 133.954 6.56807C138.19 6.58246 142.427 6.52328 146.661 6.59693C150.041 6.6557 152.763 7.97805 154.223 11.1671C155.729 14.4545 155.219 19.4814 150.968 21.7823C150.612 21.9745 150.749 22.1445 150.866 22.3696C152.143 24.8213 153.418 27.274 154.693 29.7268C154.783 29.8987 154.866 30.0736 155 30.3427" fill="#264185"/>
<path d="M65.2752 12.4414C64.4287 12.4414 63.5817 12.4571 62.7359 12.4339C62.3761 12.4241 62.2232 12.5015 62.2426 12.8963C62.2757 13.5719 62.269 14.251 62.2445 14.9274C62.2321 15.2693 62.3233 15.3854 62.6893 15.3813C64.4002 15.3619 66.1113 15.3789 67.8223 15.3698C68.6821 15.3652 69.3372 14.7193 69.3501 13.8963C69.3627 13.0865 68.7067 12.4566 67.8147 12.4445C66.9684 12.4331 66.1217 12.4421 65.2752 12.4414V12.4414ZM65.4145 24.4786C65.4145 24.4773 65.4145 24.4761 65.4145 24.4748C66.3334 24.4748 67.2527 24.4916 68.171 24.4703C69.1609 24.4472 69.8221 23.775 69.804 22.8544C69.7861 21.9431 69.0947 21.2569 68.1316 21.2487C66.3119 21.2333 64.492 21.251 62.6723 21.2367C62.3508 21.2341 62.2319 21.3042 62.2432 21.647C62.2699 22.4485 62.2734 23.2522 62.2422 24.0534C62.2275 24.434 62.3824 24.4912 62.712 24.4848C63.6125 24.467 64.5137 24.4786 65.4145 24.4786ZM73.6828 7.49515C74.9185 8.29646 75.8895 9.31234 76.3953 10.7188C77.3594 13.3993 76.2699 17.0076 73.0651 17.9444C73.0029 17.9625 72.9498 18.0109 72.8541 18.068C75.3678 18.7707 76.7656 20.4391 77.1087 22.8864C77.4529 25.3415 76.7345 27.4729 74.6684 29.0363C74.6271 29.0675 74.5974 29.1135 74.5622 29.1526C72.9901 30.1153 71.2622 30.37 69.4426 30.3569C65.0442 30.3252 60.6455 30.3466 56.2468 30.3466C56.0499 30.3466 55.8531 30.3466 55.5187 30.3466C57.6617 28.7986 58.8717 26.9066 58.9285 24.2851C58.9842 21.7127 58.2642 19.582 56.0654 17.9704C58.1137 16.462 58.5495 14.3822 58.4606 12.0586C58.368 9.63668 57.0135 8.01044 55.0829 6.57338C55.3743 6.57338 55.5455 6.57338 55.7168 6.57338C59.9711 6.57338 64.2257 6.59464 68.4799 6.56336C70.2835 6.5501 72.042 6.67152 73.6828 7.49515Z" fill="#264185"/>
</svg>
